<?xml version="1.0" encoding="UTF-8"?>
<svg width="30px" height="28px" viewBox="0 0 30 28" version="1.1" xmlns="http://www.w3.org/2000/svg" xmlns:xlink="http://www.w3.org/1999/xlink">
    <!-- Generator: Sketch 47.1 (45422) - http://www.bohemiancoding.com/sketch -->
    <title></title>
    <desc>Created with Sketch.</desc>
    <defs></defs>
    <g id="Comps-V2" stroke="none" stroke-width="1" fill="none" fill-rule="evenodd">
        <g id="Story-Template" transform="translate(-81.000000, -158.000000)" fill="#19273B">
            <g id="Group" transform="translate(81.000000, 129.000000)">
                <path d="M28.8356941,43.1930147 C29.1449748,43.9466949 29.0176258,44.5900709 28.4536434,45.1231618 L16.2280202,57.4761029 C15.9005465,57.8253694 15.4912105,58 15,58 C14.5087895,58 14.0994535,57.8253694 13.7719798,57.4761029 L1.54635665,45.1231618 C0.982374187,44.5900709 0.855025219,43.9466949 1.16430592,43.1930147 C1.47358663,42.4760994 2.01027156,42.1176471 2.77437683,42.1176471 L9.76044721,42.1176471 L9.76044721,29.7647059 C9.76044721,29.2867623 9.93327796,28.8731635 10.2789446,28.5238971 C10.6246113,28.1746306 11.0339473,28 11.5069648,28 L18.4930352,28 C18.9660527,28 19.3753887,28.1746306 19.7210554,28.5238971 C20.066722,28.8731635 20.2395528,29.2867623 20.2395528,29.7647059 L20.2395528,42.1176471 L27.2256232,42.1176471 C27.9897284,42.1176471 28.5264134,42.4760994 28.8356941,43.1930147 Z" id="" transform="translate(15.000000, 43.000000) scale(-1, 1) rotate(-90.000000) translate(-15.000000, -43.000000) "></path>
            </g>
        </g>
    </g>
</svg>