<?xml version="1.0" encoding="UTF-8"?>
<svg width="858px" height="162px" viewBox="0 0 858 162" version="1.1" xmlns="http://www.w3.org/2000/svg" xmlns:xlink="http://www.w3.org/1999/xlink">
    <!-- Generator: Sketch 48.1 (47250) - http://www.bohemiancoding.com/sketch -->
    <title>Artboard</title>
    <desc>Created with Sketch.</desc>
    <defs></defs>
    <g id="Logo" stroke="none" stroke-width="1" fill="none" fill-rule="evenodd">
        <g id="Artboard" fill="#0078C1">
            <path d="M98.1015625,111.859375 L98.296875,112.445312 C98.557293,127.679764 94.6673579,139.089155 86.6269531,146.673828 C78.5865483,154.258501 67.1120537,158.050781 52.203125,158.050781 C36.9035693,158.050781 24.7617637,153.542363 15.7773438,144.525391 C6.79292383,135.508418 2.30078125,122.699302 2.30078125,106.097656 L2.30078125,63.9101562 C2.30078125,47.3736152 6.64644092,34.5482227 15.3378906,25.4335938 C24.0293403,16.3189648 35.764249,11.7617188 50.5429688,11.7617188 C66.1029424,11.7617188 78.0494375,15.5377227 86.3828125,23.0898438 C94.7161875,30.6419648 98.7526055,42.0676318 98.4921875,57.3671875 L98.296875,57.953125 L71.5390625,57.953125 C71.5390625,48.8384961 69.9277505,42.4583516 66.7050781,38.8125 C63.4824058,35.1666484 58.0950898,33.34375 50.5429688,33.34375 C43.6418926,33.34375 38.4661631,35.8339595 35.015625,40.8144531 C31.5650869,45.7949468 29.8398438,53.428334 29.8398438,63.7148438 L29.8398438,106.097656 C29.8398438,116.449271 31.6952939,124.115209 35.40625,129.095703 C39.1172061,134.076197 44.7161084,136.566406 52.203125,136.566406 C59.0390967,136.566406 63.9544121,134.759784 66.9492188,131.146484 C69.9440254,127.533185 71.4414062,121.104213 71.4414062,111.859375 L98.1015625,111.859375 Z M110.40625,102.191406 C110.40625,86.3059102 114.19853,73.3665864 121.783203,63.3730469 C129.367876,53.3795073 140.028577,48.3828125 153.765625,48.3828125 C167.437568,48.3828125 178.114545,53.3795073 185.796875,63.3730469 C193.479205,73.3665864 197.320312,86.3059102 197.320312,102.191406 L197.320312,104.4375 C197.320312,120.322996 193.495481,133.229768 185.845703,143.158203 C178.195925,153.086638 167.567776,158.050781 153.960938,158.050781 C140.158785,158.050781 129.449257,153.102914 121.832031,143.207031 C114.214806,133.311148 110.40625,120.388101 110.40625,104.4375 L110.40625,102.191406 Z M137.847656,104.4375 C137.847656,114.268278 139.068347,122.0807 141.509766,127.875 C143.951184,133.6693 148.101533,136.566406 153.960938,136.566406 C159.559924,136.566406 163.596342,133.6693 166.070312,127.875 C168.544283,122.0807 169.78125,114.268278 169.78125,104.4375 L169.78125,102.191406 C169.78125,92.4908369 168.544283,84.6946909 166.070312,78.8027344 C163.596342,72.9107778 159.49482,69.9648438 153.765625,69.9648438 C148.03643,69.9648438 143.951184,72.9270537 141.509766,78.8515625 C139.068347,84.7760713 137.847656,92.5559414 137.847656,102.191406 L137.847656,104.4375 Z M208.550781,103.753906 C208.550781,87.1522607 211.643198,73.7734883 217.828125,63.6171875 C224.013052,53.4608867 232.769475,48.3828125 244.097656,48.3828125 C248.329448,48.3828125 252.15428,49.391917 255.572266,51.4101563 C258.990251,53.4283955 262.033841,56.2929502 264.703125,60.0039062 L264.703125,3.65625 L292.242188,3.65625 L292.242188,156 L268.707031,156 L266.65625,144.085938 C263.856757,148.643252 260.569029,152.110014 256.792969,154.486328 C253.016908,156.862642 248.720076,158.050781 243.902344,158.050781 C232.704371,158.050781 224.013052,153.281949 217.828125,143.744141 C211.643198,134.206333 208.550781,121.559975 208.550781,105.804688 L208.550781,103.753906 Z M235.894531,105.804688 C235.894531,115.375048 237.066395,122.878228 239.410156,128.314453 C241.753918,133.750678 245.627577,136.46875 251.03125,136.46875 C254.026057,136.46875 256.679025,135.768887 258.990234,134.369141 C261.301444,132.969394 263.205722,130.902357 264.703125,128.167969 L264.703125,79.6328125 C263.205722,76.6380059 261.285168,74.2942793 258.941406,72.6015625 C256.597645,70.9088457 253.993504,70.0625 251.128906,70.0625 C245.790338,70.0625 241.916679,73.154917 239.507813,79.3398438 C237.098946,85.5247705 235.894531,93.66271 235.894531,103.753906 L235.894531,105.804688 Z M351.128906,158.050781 C337.196545,158.050781 326.389361,153.233121 318.707031,143.597656 C311.024701,133.962191 307.183594,121.559972 307.183594,106.390625 L307.183594,102.386719 C307.183594,86.4361182 310.878218,73.4479668 318.267578,63.421875 C325.656938,53.3957832 336.057225,48.3828125 349.46875,48.3828125 C361.903708,48.3828125 371.441373,52.6470928 378.082031,61.1757812 C384.722689,69.7044697 388.042969,81.2928955 388.042969,95.9414062 L388.042969,110.980469 L334.722656,110.980469 C335.178388,118.793008 336.952458,125.010394 340.044922,129.632812 C343.137385,134.255231 347.906218,136.566406 354.351562,136.566406 C359.82034,136.566406 364.393862,135.931647 368.072266,134.662109 C371.750669,133.392572 375.705708,131.390639 379.9375,128.65625 L387.066406,145.84375 C383.290346,149.294288 378.195996,152.191395 371.783203,154.535156 C365.370411,156.878918 358.485714,158.050781 351.128906,158.050781 Z M349.46875,69.9648438 C344.846331,69.9648438 341.412121,71.9993286 339.166016,76.0683594 C336.919911,80.1373901 335.503909,85.7200166 334.917969,92.8164062 L361.089844,92.8164062 L361.089844,90.375 C361.089844,83.9296553 360.19467,78.9166846 358.404297,75.3359375 C356.613923,71.7551904 353.635438,69.9648438 349.46875,69.9648438 Z M490.484375,156 L403.375,156 L403.375,137.640625 L442.730469,87.9335938 C448.329455,80.3814727 452.349597,73.8711211 454.791016,68.4023438 C457.232434,62.9335664 458.453125,57.9531475 458.453125,53.4609375 C458.453125,47.2760107 457.264986,42.3769712 454.888672,38.7636719 C452.512358,35.1503726 448.850285,33.34375 443.902344,33.34375 C438.759089,33.34375 434.80405,35.6386489 432.037109,40.2285156 C429.270168,44.8183823 427.886719,50.6939746 427.886719,57.8554688 L400.835937,57.8554688 L400.542969,57.2695313 C400.282551,44.5741553 404.123658,33.8157993 412.066406,24.9941406 C420.009154,16.1724819 430.621027,11.7617188 443.902344,11.7617188 C457.378974,11.7617188 467.811812,15.488895 475.201172,22.9433594 C482.590532,30.3978237 486.285156,40.5376963 486.285156,53.3632813 C486.285156,62.0221787 484.153016,69.9973594 479.888672,77.2890625 C475.624328,84.5807656 468.479217,94.3137412 458.453125,106.488281 L439.117187,134.515625 L490.484375,134.515625 L490.484375,156 Z M602.105469,111.859375 L602.300781,112.445312 C602.561199,127.679764 598.671264,139.089155 590.630859,146.673828 C582.590455,154.258501 571.11596,158.050781 556.207031,158.050781 C540.907476,158.050781 528.76567,153.542363 519.78125,144.525391 C510.79683,135.508418 506.304687,122.699302 506.304687,106.097656 L506.304687,63.9101562 C506.304687,47.3736152 510.650347,34.5482227 519.341797,25.4335938 C528.033247,16.3189648 539.768155,11.7617188 554.546875,11.7617188 C570.106849,11.7617188 582.053344,15.5377227 590.386719,23.0898438 C598.720094,30.6419648 602.756512,42.0676318 602.496094,57.3671875 L602.300781,57.953125 L575.542969,57.953125 C575.542969,48.8384961 573.931657,42.4583516 570.708984,38.8125 C567.486312,35.1666484 562.098996,33.34375 554.546875,33.34375 C547.645799,33.34375 542.470069,35.8339595 539.019531,40.8144531 C535.568993,45.7949468 533.84375,53.428334 533.84375,63.7148438 L533.84375,106.097656 C533.84375,116.449271 535.6992,124.115209 539.410156,129.095703 C543.121112,134.076197 548.720015,136.566406 556.207031,136.566406 C563.043003,136.566406 567.958318,134.759784 570.953125,131.146484 C573.947932,127.533185 575.445312,121.104213 575.445312,111.859375 L602.105469,111.859375 Z M672.808594,140.960938 C670.009101,146.429715 666.509787,150.645167 662.310547,153.607422 C658.111307,156.569676 653.244819,158.050781 647.710938,158.050781 C638.205682,158.050781 630.735053,154.242226 625.298828,146.625 C619.862603,139.007774 617.144531,127.224038 617.144531,111.273438 L617.144531,50.3359375 L644.683594,50.3359375 L644.683594,111.46875 C644.683594,120.908901 645.611319,127.435529 647.466797,131.048828 C649.322275,134.662127 652.235657,136.46875 656.207031,136.46875 C659.397151,136.46875 662.196603,135.866542 664.605469,134.662109 C667.014335,133.457676 669.065096,131.683605 670.757812,129.339844 L670.757812,50.3359375 L698.394531,50.3359375 L698.394531,156 L675.835938,156 L672.808594,140.960938 Z M765.484375,74.1640625 L756.109375,73.8710938 C753.049464,73.8710938 750.494151,74.6848877 748.443359,76.3125 C746.392568,77.9401123 744.813808,80.2187354 743.707031,83.1484375 L743.707031,156 L716.265625,156 L716.265625,50.3359375 L741.949219,50.3359375 L743.023438,65.2773438 C745.041677,59.9387754 747.629542,55.7884263 750.787109,52.8261719 C753.944677,49.8639175 757.574198,48.3828125 761.675781,48.3828125 C762.912767,48.3828125 764.052078,48.4967437 765.09375,48.7246094 C766.135422,48.9524751 767.20963,49.229165 768.316406,49.5546875 L765.484375,74.1640625 Z M818.902344,158.050781 C804.969982,158.050781 794.162799,153.233121 786.480469,143.597656 C778.798139,133.962191 774.957031,121.559972 774.957031,106.390625 L774.957031,102.386719 C774.957031,86.4361182 778.651656,73.4479668 786.041016,63.421875 C793.430375,53.3957832 803.830662,48.3828125 817.242188,48.3828125 C829.677146,48.3828125 839.214811,52.6470928 845.855469,61.1757812 C852.496127,69.7044697 855.816406,81.2928955 855.816406,95.9414062 L855.816406,110.980469 L802.496094,110.980469 C802.951825,118.793008 804.725896,125.010394 807.818359,129.632812 C810.910823,134.255231 815.679655,136.566406 822.125,136.566406 C827.593777,136.566406 832.167299,135.931647 835.845703,134.662109 C839.524107,133.392572 843.479146,131.390639 847.710938,128.65625 L854.839844,145.84375 C851.063783,149.294288 845.969433,152.191395 839.556641,154.535156 C833.143848,156.878918 826.259151,158.050781 818.902344,158.050781 Z M817.242188,69.9648438 C812.619769,69.9648438 809.185558,71.9993286 806.939453,76.0683594 C804.693348,80.1373901 803.277347,85.7200166 802.691406,92.8164062 L828.863281,92.8164062 L828.863281,90.375 C828.863281,83.9296553 827.968108,78.9166846 826.177734,75.3359375 C824.387361,71.7551904 821.408875,69.9648438 817.242188,69.9648438 Z" id="Code2Cure"></path>
        </g>
    </g>
</svg>