<?xml version="1.0" encoding="UTF-8"?>
<svg width="1114px" height="293px" viewBox="0 0 1114 293" version="1.1" xmlns="http://www.w3.org/2000/svg" xmlns:xlink="http://www.w3.org/1999/xlink">
    <!-- Generator: Sketch 48.1 (47250) - http://www.bohemiancoding.com/sketch -->
    <title>Artboard</title>
    <desc>Created with Sketch.</desc>
    <defs></defs>
    <g id="Logo" stroke="none" stroke-width="1" fill="none" fill-rule="evenodd">
        <g id="Artboard" fill="#FFFFFF">
            <g id="Page-1">
                <path d="M150.375,0 C61,0 0,67 0,143.5 C0,227.125 56,293 150.375,293 C235.125,293 272.375,237.25 272.375,237.25 L250.375,220.5 C250.375,220.5 219,266.5 150.375,266.5 C87.375,266.5 29.187,222.375 29.187,144.312 C29.187,84.813 78.875,27.5 151.375,27.5 C217.875,27.5 250.588,75.502 250.588,75.502 L272.375,58.5 C272.375,58.5 235.625,0 150.375,0" id="Fill-1" opacity="0.75"></path>
                <path d="M460.625,266.25 C394.975,266.25 342.375,214.135 342.375,147.52 C342.375,80.083 395.125,27 460.625,27 C517.125,27 578.875,72.339 578.875,147.52 C578.875,211.75 527.792,266.25 460.625,266.25 M460.5,0 C362.292,0 313.625,80.25 313.625,147.75 C313.625,229.417 378.958,293 460.5,293 C546.792,293 607.375,224.083 607.375,147.75 C607.375,55.583 535.125,0 460.5,0" id="Fill-3" opacity="0.5"></path>
                <polygon id="Fill-5" opacity="0.75" points="982.625 259.25 982.625 150.25 1113.625 150.25 1113.625 123.25 982.625 123.25 982.625 35.25 1113.625 35.25 1113.625 8.25 954.625 8.25 954.625 287.25 1113.625 287.25 1113.625 259.25"></polygon>
                <path d="M693.625,35.25 L742.625,35.25 C768.5,35.25 811.458,36.062 811.458,83.021 C811.458,136.604 742.625,130.25 742.625,130.25 L693.625,130.25 L693.625,35.25 Z M810.625,287.25 L844.625,287.25 L744.446,157.25 L747.792,157.25 C788.625,157.25 840.104,140.458 840.104,83.021 C840.104,45.417 815.292,8.25 757.276,8.25 L665.625,8.25 L665.625,287.25 L693.625,287.25 L693.625,157.25 L709.948,157.25 L810.625,287.25 Z" id="Fill-7" opacity="0.5"></path>
                <path d="M524.625,7.25 L524.625,195.917 C524.625,250.583 487.625,266.416 459,266.416 C432.458,266.416 395.625,250.917 395.625,197.583 L395.625,7.25 L367.625,7.25 L367.625,193.75 C367.625,255.583 401.542,293 460,293 C515.708,293 551.625,255.25 551.625,193.75 L551.625,7.25 L524.625,7.25 Z" id="Fill-9" opacity="0.5"></path>
                <path d="M748.2917,259.25 L693.6247,259.25 L693.6247,34.25 C693.6247,34.25 709.9907,34.456 748.6247,34.456 C869.6247,34.456 872.6247,129.062 872.6247,150.5 C872.6247,183.583 864.9587,259.25 748.2917,259.25 M752.5417,8.25 L665.6247,8.25 L665.6247,287.25 L752.5417,287.25 C859.6247,287.25 900.6247,225 900.6247,150.125 C900.6247,63.75 848.6247,8.25 752.5417,8.25" id="Fill-11" opacity="0.5"></path>
            </g>
        </g>
    </g>
</svg>