<?xml version="1.0" encoding="UTF-8"?>
<svg width="67px" height="35px" viewBox="0 0 67 35" version="1.1" xmlns="http://www.w3.org/2000/svg" xmlns:xlink="http://www.w3.org/1999/xlink">
    <!-- Generator: Sketch 48.1 (47250) - http://www.bohemiancoding.com/sketch -->
    <title>Artboard Copy 2</title>
    <desc>Created with Sketch.</desc>
    <defs></defs>
    <g id="Logo" stroke="none" stroke-width="1" fill="none" fill-rule="evenodd">
        <g id="Artboard-Copy-2">
            <g id="Page-1" transform="translate(31.000000, 12.000000)"></g>
            <path d="M52.2007168,0.094803523 L67.2172344,17.6591125 L52.2007168,34.9896138 L15.0780474,34.9896138 L-2.84552846e-05,17.5976491 L15.0657168,0.094803523 L52.2007168,0.094803523 Z M15.9273428,1.85495257 L2.32628591,17.6591125 L15.9273428,33.3403455 L51.3514214,33.3403455 L64.8909201,17.708435 L51.3514214,1.85495257 L15.9273428,1.85495257 Z M45.4679214,13.4865528 C46.4648997,14.2250623 46.7110379,14.9266748 46.7110379,16.896065 L46.7110379,23.5673117 L44.5325014,23.5673117 L44.5447371,16.9698591 C44.5447371,16.3913631 44.5570678,15.8497642 44.2862683,15.4559431 C44.0277995,15.0743577 43.5231924,14.9143442 43.1662683,14.9266748 C42.3538699,14.9635718 41.9107263,15.5420678 41.9107263,16.0591003 L41.9107263,23.5673117 L39.7320949,23.5673117 L39.7320949,9.19084824 L41.9107263,9.19084824 L41.9107263,13.5973388 C42.3784363,13.228084 43.0431518,13.0065122 43.7447642,12.9941816 C44.3847236,12.9819458 45.049439,13.1788564 45.4679214,13.4865528 Z M29.8483225,16.7237114 C29.8852195,17.0190772 29.9098808,18.0407168 29.9098808,18.4223022 C29.9098808,19.2592669 29.8728889,19.9608794 29.8606531,20.120893 C29.7129702,22.3733184 28.4082005,23.788874 26.3650163,23.788874 C24.3217371,23.788874 23.0170623,22.3979797 22.8816152,20.120893 C22.8693794,19.9485488 22.8078211,19.2592669 22.8201518,18.4223022 C22.8323875,17.2775461 22.8570488,16.920622 22.8816152,16.7237114 C23.103187,14.2866111 24.3340678,12.9941721 26.3650163,12.9941721 C27.7928076,12.9941721 29.540626,13.6588875 29.8483225,16.7237114 Z M27.7435799,18.4223022 C27.7435799,17.0190772 27.6820217,16.4283455 27.6820217,16.4160149 C27.6696911,15.6282778 27.2635393,14.8405407 26.3650163,14.8405407 C25.478729,14.8405407 25.0602466,15.6282778 25.0602466,16.4283455 C25.0480108,16.4283455 24.9986883,17.0190772 24.9986883,18.4223022 C24.9986883,19.8254322 25.0480108,20.3054729 25.0602466,20.3054729 C25.0972385,21.0686436 25.4664932,21.954836 26.3650163,21.954836 C27.2758699,21.954836 27.6081328,21.1302019 27.6820217,20.3424648 C27.6943523,20.2193482 27.7435799,19.8254322 27.7435799,18.4223022 Z M53.0500122,20.0100976 L55.142519,20.0100976 C54.9947412,22.3979702 53.6777358,23.7888645 51.7083455,23.7888645 C49.7267195,23.7888645 48.3973835,22.3610732 48.2742669,20.1208835 C48.2619363,19.9608699 48.2127087,19.2592575 48.2127087,18.4222927 C48.2127087,17.2529702 48.2497005,16.9452737 48.2742669,16.7237019 C48.5081694,14.274271 49.7390501,12.9941626 51.7083455,12.9941626 C52.7299851,12.9941626 53.5916111,13.3880786 54.1946734,14.1512493 C54.7239417,14.7913035 55.0686301,15.8005176 55.142519,16.7237019 C55.179416,17.3268591 55.1917466,17.6098943 55.1917466,17.7822385 C55.2039824,18.2130515 55.2039824,18.9392304 55.2039824,18.9392304 L50.3421125,18.9392304 C50.3421125,19.8255176 50.3790095,20.0839864 50.3913401,20.317794 C50.4528984,21.1301924 50.7975867,21.9548266 51.7083455,21.9548266 C52.7668821,21.9548266 52.9638875,20.8717236 53.0253509,20.3670217 C53.0500122,20.1701111 53.0500122,20.0100976 53.0500122,20.0100976 Z M50.3544431,17.1298537 L53.0746734,17.1298537 C53.0746734,16.9206125 53.0623428,16.7237019 53.0376816,16.4160054 C53.0007846,15.8497453 52.7546463,14.8282005 51.7083455,14.8405312 C50.8221531,14.8405312 50.4405678,15.5543794 50.3790095,16.4160054 C50.3667737,16.5513577 50.3667737,16.649813 50.3544431,17.1298537 Z M21.5277127,22.6687602 C21.5400434,23.1733672 21.6384986,23.5672832 21.6384986,23.5672832 L19.4845285,23.5672832 C19.4845285,23.5672832 19.3983089,23.1611314 19.3737425,22.6810908 L19.1521707,19.3454675 C19.0290542,17.6468767 18.2536477,17.0437195 17.5643659,17.0437195 L16.3703821,17.0437195 L16.3581463,23.5672832 L14.2164119,23.5672832 L14.2164119,9.30160569 L17.5397046,9.30160569 C19.5829837,9.32626694 21.3184715,10.3109146 21.3184715,13.0927033 C21.3308022,14.9266463 20.5676314,15.800603 19.9768049,16.1575271 C20.8015339,16.6375678 21.2076856,17.5729878 21.3061409,19.1484621 L21.5277127,22.6687602 Z M16.3703821,11.1478794 L16.3703821,15.1974458 L17.5028076,15.1974458 C18.8074824,15.1974458 19.0906125,14.1020122 19.1521707,13.4741938 C19.1645014,13.3880691 19.1645014,13.3265108 19.1645014,13.1296003 C19.1645014,12.9695867 19.1521707,12.8834621 19.1521707,12.7972425 C19.1275095,11.738706 18.5121165,11.1478794 17.3920217,11.1478794 L16.3703821,11.1478794 Z M36.2118631,19.9116328 L38.378164,19.9116328 C38.378164,19.9731911 38.3658333,20.0347493 38.3658333,20.120874 C38.1565921,22.5087466 36.9872696,23.8011856 34.8701965,23.788855 C32.8270122,23.788855 31.5222425,22.3979607 31.3868902,20.120874 C31.3745596,19.9485298 31.3130014,19.259248 31.325332,18.4222832 C31.3376626,17.277622 31.3623238,16.920603 31.3868902,16.7236924 C31.6084621,14.2865921 32.8393428,12.994248 34.8701965,12.994248 C36.2979878,12.994248 38.1196951,13.7204268 38.3658333,16.699126 C38.3658333,16.7605894 38.378164,16.883706 38.378164,17.0313889 L36.2241938,17.0313889 C36.2118631,16.6129065 36.1872019,16.4283266 36.1872019,16.4159959 C36.1749661,15.6282588 35.7933808,14.8281911 34.8701965,14.8405217 C33.9840041,14.8405217 33.6394106,15.5298035 33.5655217,16.4283266 C33.5409553,16.6498984 33.4916328,17.0191531 33.5039634,18.4222832 C33.516294,19.6285027 33.5039634,19.9485298 33.5409553,20.3547764 C33.6147493,21.0317276 33.9716734,21.9548171 34.8701965,21.9548171 C35.854939,21.9548171 36.1257385,21.1056165 36.1872019,20.3055488 C36.1995325,20.2070935 36.2118631,20.0716463 36.2118631,19.9116328 Z" id="Combined-Shape" fill="#0078C1"></path>
        </g>
    </g>
</svg>