<?xml version="1.0" encoding="UTF-8"?>
<svg width="30px" height="30px" viewBox="0 0 30 30" version="1.1" xmlns="http://www.w3.org/2000/svg" xmlns:xlink="http://www.w3.org/1999/xlink">
    <!-- Generator: Sketch 48.1 (47250) - http://www.bohemiancoding.com/sketch -->
    <title>icon-mission-active</title>
    <desc>Created with Sketch.</desc>
    <defs></defs>
    <g id="Comps-V3" stroke="none" stroke-width="1" fill="none" fill-rule="evenodd">
        <g id="mission-active" fill="#0096FF">
            <g id="mission" transform="translate(1.250000, 2.500000)">
                <path d="M26.0475,15.493375 L24.44125,15.998375 C24.15,16.090875 23.8375,16.108375 23.5425,16.053375 L16.1075,14.694625 C16.09625,14.693375 16.085,14.692125 16.07375,14.690875 L17.3525,7.693375 C17.365,7.695875 17.375,7.699625 17.38625,7.702125 L24.82125,9.060875 C25.12,9.114625 25.40375,9.243375 25.64375,9.430875 L26.96625,10.470875 L26.0475,15.493375 Z M18.355,24.893375 C17.84625,25.614625 16.87875,25.832125 16.10625,25.390875 C15.68125,25.152125 15.3775,24.739625 15.27125,24.264625 C15.165,23.785875 15.26375,23.303375 15.5475,22.907125 C16.66,21.348375 18.22625,18.982125 19.35875,16.565875 C19.36,16.564625 19.36,16.563375 19.36,16.560875 L22.70125,17.172125 C21.7675,19.818375 19.62125,23.090875 18.355,24.893375 Z M6.06,15.914625 C5.13625,16.218375 4.2625,16.507125 3.41875,16.707125 C3.1975,16.757125 2.98375,16.699625 2.82375,16.549625 C2.67,16.403375 2.605,16.199625 2.6425,15.989625 L5.2425,1.765875 C5.2825,1.550875 5.42125,1.380875 5.62375,1.297125 C5.82375,1.217125 6.03375,1.240875 6.20625,1.359625 C6.84875,1.808375 7.5,2.334625 8.18875,2.890875 C10.28875,4.588375 12.65,6.482125 16.1325,7.410875 L14.83375,14.524625 C11.35875,14.180875 8.5575,15.090875 6.06,15.914625 Z M1.625,9.705875 C1.35875,9.588375 1.2075,9.308375 1.26,9.020875 L1.48625,7.788375 C1.53875,7.500875 1.77875,7.290875 2.07,7.275875 L2.97375,7.230875 L2.455,10.068375 L1.625,9.705875 Z M26.415,8.447125 C26.01625,8.134625 25.5425,7.922125 25.045,7.830875 L17.61125,6.470875 C13.73,5.762125 11.20375,3.720875 8.975,1.919625 C8.2675,1.348375 7.6,0.807125 6.92125,0.334625 C6.4,-0.027875 5.7375,-0.101625 5.14875,0.140875 C4.55375,0.385875 4.12875,0.908375 4.01375,1.540875 L3.20375,5.968375 L2.0075,6.028375 C1.13375,6.072125 0.41375,6.703375 0.2575,7.563375 L0.03125,8.797125 C-0.12625,9.655875 0.32375,10.502125 1.125,10.850875 L2.22375,11.332125 L1.4125,15.765875 C1.29875,16.388375 1.505,17.020875 1.9625,17.455875 C2.31875,17.793375 2.785,17.974625 3.26375,17.974625 C3.41125,17.974625 3.56,17.958375 3.7075,17.922125 C4.6025,17.709625 5.50125,17.414625 6.45125,17.100875 C9.105,16.227125 12.11375,15.232125 15.8825,15.925875 L18.08375,16.328375 C17.0025,18.557125 15.5675,20.727125 14.53,22.179625 C14.04375,22.859625 13.87,23.717125 14.05125,24.533375 C14.23375,25.357125 14.75875,26.064625 15.49,26.478375 C15.95625,26.743375 16.4625,26.869625 16.96125,26.869625 C17.895,26.869625 18.80375,26.427125 19.3775,25.612125 C21.015,23.282125 23.08625,20.013375 23.97125,17.322125 C24.2575,17.313375 24.54375,17.277125 24.8175,17.189625 L27.14125,16.459625 L28.33125,9.953375 L26.415,8.447125 Z" id="Fill-1"></path>
                <path d="M24.874375,10.79975 L23.316875,10.5135 C22.983125,10.45975 22.653125,10.676 22.589375,11.01725 C22.526875,11.356 22.753125,11.68225 23.091875,11.74475 L24.649375,12.02975 C24.688125,12.036 24.725625,12.03975 24.763125,12.03975 C25.058125,12.03975 25.320625,11.8285 25.376875,11.52725 C25.439375,11.1885 25.213125,10.86225 24.874375,10.79975" id="Fill-4"></path>
                <path d="M24.395875,13.1045 L22.832125,12.85575 C22.484625,12.80325 22.170875,13.0345 22.115875,13.3745 C22.062125,13.71575 22.293375,14.03575 22.634625,14.09075 L24.198375,14.3395 C24.232125,14.3445 24.265875,14.347 24.298375,14.347 C24.599625,14.347 24.865875,14.127 24.914625,13.82075 C24.968375,13.4795 24.735875,13.1595 24.395875,13.1045" id="Fill-6"></path>
            </g>
        </g>
    </g>
</svg>