<?xml version="1.0" encoding="UTF-8"?>
<svg width="30px" height="30px" viewBox="0 0 30 30" version="1.1" xmlns="http://www.w3.org/2000/svg" xmlns:xlink="http://www.w3.org/1999/xlink">
    <!-- Generator: Sketch 48.1 (47250) - http://www.bohemiancoding.com/sketch -->
    <title>icon-positions-active</title>
    <desc>Created with Sketch.</desc>
    <defs></defs>
    <g id="Comps-V3" stroke="none" stroke-width="1" fill="none" fill-rule="evenodd">
        <g id="positions-active" fill="#0096FF">
            <g id="positions" transform="translate(2.500000, 2.500000)">
                <path d="M22.705125,22.851625 L3.125125,22.851625 C2.091375,22.851625 1.250125,22.010375 1.250125,20.976625 L1.250125,12.274125 L10.547625,12.274125 L10.547625,12.917875 C9.782625,13.594125 9.333875,14.572875 9.333875,15.592875 C9.333875,17.567875 10.940125,19.175375 12.915125,19.175375 C14.890125,19.175375 16.497625,17.567875 16.497625,15.592875 C16.497625,14.572875 16.048875,13.594125 15.283875,12.917875 L15.283875,12.274125 L24.580125,12.274125 L24.580125,20.976625 C24.580125,22.010375 23.738875,22.851625 22.705125,22.851625 Z M14.288875,13.719125 C14.898875,14.166625 15.247625,14.850375 15.247625,15.592875 C15.247625,16.879125 14.201375,17.925375 12.915125,17.925375 C11.630125,17.925375 10.583875,16.879125 10.583875,15.592875 C10.583875,14.850375 10.932625,14.166625 11.542625,13.719125 L11.797625,13.531625 L11.797625,12.274125 L14.033875,12.274125 L14.033875,13.531625 L14.288875,13.719125 Z M3.125125,5.010375 L22.705125,5.010375 C23.738875,5.010375 24.580125,5.850375 24.580125,6.885375 L24.580125,11.024125 L1.250125,11.024125 L1.250125,6.885375 C1.250125,5.850375 2.091375,5.010375 3.125125,5.010375 Z M10.438875,1.976625 C10.438875,1.575375 10.763875,1.250375 11.166375,1.250375 L14.876375,1.250375 C15.277625,1.250375 15.602625,1.575375 15.602625,1.976625 L15.602625,3.760375 L10.438875,3.760375 L10.438875,1.976625 Z M22.705125,3.760375 L16.852625,3.760375 C16.852625,3.431625 16.852625,2.895375 16.852625,1.976625 C16.852625,0.886625 15.966375,0.000375 14.876375,0.000375 L11.166375,0.000375 C10.075125,0.000375 9.188875,0.886625 9.188875,1.976625 L9.188875,3.760375 L3.125125,3.760375 C1.401375,3.760375 0.000125,5.161625 0.000125,6.885375 L0.000125,20.976625 C0.000125,22.700375 1.401375,24.101625 3.125125,24.101625 L22.705125,24.101625 C24.428875,24.101625 25.830125,22.700375 25.830125,20.976625 L25.830125,6.885375 C25.830125,5.161625 24.428875,3.760375 22.705125,3.760375 Z" id="Fill-1"></path>
                <path d="M12.915,13.833125 C12.57,13.833125 12.29,14.113125 12.29,14.458125 L12.29,16.421875 C12.29,16.768125 12.57,17.046875 12.915,17.046875 C13.26,17.046875 13.54,16.768125 13.54,16.421875 L13.54,14.458125 C13.54,14.113125 13.26,13.833125 12.915,13.833125" id="Fill-4"></path>
            </g>
        </g>
    </g>
</svg>