<?xml version="1.0" encoding="UTF-8"?>
<svg width="30px" height="30px" viewBox="0 0 30 30" version="1.1" xmlns="http://www.w3.org/2000/svg" xmlns:xlink="http://www.w3.org/1999/xlink">
    <!-- Generator: Sketch 48.1 (47250) - http://www.bohemiancoding.com/sketch -->
    <title>icon-culture-active</title>
    <desc>Created with Sketch.</desc>
    <defs></defs>
    <g id="Comps-V3" stroke="none" stroke-width="1" fill="none" fill-rule="evenodd">
        <g id="culture-active" fill="#0096FF">
            <g id="culture" transform="translate(0.000000, 1.250000)">
                <path d="M27.901625,16.2585 C27.820375,16.40475 27.684125,16.511 27.520375,16.55475 L14.546625,20.0935 C13.975375,20.24725 13.382875,20.11725 12.931625,19.726 C12.495375,19.34725 12.285375,18.806 12.339125,18.2335 L12.912875,18.0685 C13.244125,17.9735 13.436625,17.6285 13.341625,17.296 C13.245375,16.96225 12.896625,16.76975 12.567875,16.86725 L7.561625,18.30475 L5.366625,10.59475 L14.585375,7.961 L14.537875,18.091 C14.536625,18.43475 14.814125,18.71725 15.160375,18.7185 L15.162875,18.7185 C15.506625,18.7185 15.786625,18.43975 15.787875,18.096 L15.817875,11.63225 L25.932875,8.74225 L27.957875,15.781 C28.004125,15.94225 27.984125,16.11225 27.901625,16.2585 Z M12.226625,3.7885 C12.799125,3.63225 13.389125,3.74725 13.856625,4.10225 C14.326625,4.461 14.595375,5.006 14.595375,5.596 L14.591625,6.6585 L5.024125,9.39225 L4.075375,6.0635 C5.037875,5.78475 7.751625,5.02725 12.226625,3.7885 Z M23.919125,3.981 C24.247875,3.88725 24.594125,4.08225 24.687875,4.411 L25.587875,7.541 L15.824125,10.331 L15.842875,6.2385 L23.919125,3.981 Z M1.250375,2.37725 C1.250375,1.75475 1.755375,1.24975 2.376625,1.24975 C2.996625,1.24975 3.501625,1.75475 3.501625,2.37725 C3.501625,2.99725 2.996625,3.50225 2.376625,3.50225 C1.755375,3.50225 1.250375,2.99725 1.250375,2.37725 Z M29.159125,15.43475 L25.889125,4.066 C25.606625,3.0785 24.571625,2.501 23.582875,2.77725 L15.772875,4.95975 C15.622875,4.22725 15.222875,3.57225 14.612875,3.10725 C13.831625,2.5135 12.836625,2.3235 11.894125,2.58475 C6.867875,3.97475 4.702875,4.5735 3.739125,4.881 L3.602875,4.401 C4.287875,3.9835 4.751625,3.236 4.751625,2.37725 C4.751625,1.066 3.686625,-0.00025 2.376625,-0.00025 C1.065375,-0.00025 0.000375,1.066 0.000375,2.37725 C0.000375,3.686 1.065375,4.75225 2.376625,4.75225 C2.385375,4.75225 2.394125,4.74975 2.402875,4.74975 L8.476625,26.076 C8.554125,26.351 8.805375,26.531 9.076625,26.531 C9.132875,26.531 9.190375,26.5235 9.247875,26.506 C9.580375,26.41225 9.772875,26.06725 9.677875,25.73475 L7.904125,19.506 L11.097875,18.58975 C11.149125,19.386 11.497875,20.13725 12.112875,20.671 C12.666625,21.151 13.367875,21.406 14.081625,21.406 C14.346625,21.406 14.614125,21.37225 14.876625,21.29975 L27.849125,17.761 C28.339125,17.6285 28.744125,17.31225 28.991625,16.871 C29.239125,16.431 29.299125,15.91975 29.159125,15.43475 Z" id="Fill-1"></path>
            </g>
        </g>
    </g>
</svg>